# xmcd
#
# Track frame offsets:
#	150
#	13132
#	27471
#	40587
#	54448
#	65167
#	78648
#	92937
#	107356
#	123404
#	137744
#	151927
#	171141
#	182314
#	194148
#	216893
#	233256
#	249819
#	262314
#	275215
#	291281
#	303611
#	317832
#
# Disc length: 4402 seconds
#
# Revision: 1
# Processed by: cddbd v1.5.2PL0 Copyright (c) Steve Scherf et al.
# Submitted via: audiograbber 1.83.01
#
DISCID=51113017
DTITLE=Full Swing Act 2 - Full Swing Act 1
DYEAR=1900
DGENRE=rock and roll
TTITLE0=jump jive an wail
TTITLE1=zip gun bop
TTITLE2=opus one
TTITLE3=holiday romance
TTITLE4=caldonia
TTITLE5=brown derby jump
TTITLE6=woodchoppers ball
TTITLE7=cadillac baby
TTITLE8=you and me and the bottle makes three
TTITLE9=cherokee
TTITLE10=flyin home
TTITLE11=hit that jive jack
TTITLE12=fly me to the moon
TTITLE13=put a lid on it
TTITLE14=sing sing sing
TTITLE15=mr. pinstripe suit
TTITLE16=surely
TTITLE17=jack, you're dead
TTITLE18=take the a train
TTITLE19=dr. bones
TTITLE20=hello dolly
TTITLE21=cotton tail
TTITLE22=we are in love
EXTD=
EXTT0=
EXTT1=
EXTT2=
EXTT3=
EXTT4=
EXTT5=
EXTT6=
EXTT7=
EXTT8=
EXTT9=
EXTT10=
EXTT11=
EXTT12=
EXTT13=
EXTT14=
EXTT15=
EXTT16=
EXTT17=
EXTT18=
EXTT19=
EXTT20=
EXTT21=
EXTT22=
PLAYORDER=
